<?xml version="1.0" encoding="utf-8"?>
<!-- Generator: Adobe Illustrator 23.0.2, SVG Export Plug-In . SVG Version: 6.00 Build 0)  -->
<svg version="1.1" id="Capa_1" xmlns="http://www.w3.org/2000/svg" xmlns:xlink="http://www.w3.org/1999/xlink" x="0px" y="0px"
	 viewBox="0 0 455.9 455.9" style="enable-background:new 0 0 455.9 455.9;" xml:space="preserve">
<style type="text/css">
	.st0{fill:#FFFFFF;}
</style>
<g>
	<path class="st0" d="M95.7,295.8c-4.4,0-8,3.6-8,8c0,4.2-3.4,7.7-7.7,7.7c-4.2,0-7.7-3.5-7.7-7.7c0-4.2,3.4-7.7,7.7-7.7
		c4.4,0,8-3.6,8-8s-3.6-8-8-8c-13.1,0-23.7,10.6-23.7,23.7c0,13.1,10.6,23.7,23.7,23.7c13.1,0,23.7-10.6,23.7-23.7
		C103.7,299.4,100.1,295.8,95.7,295.8z"/>
	<path class="st0" d="M175.8,295.8c-4.4,0-8,3.6-8,8c0,4.2-3.4,7.7-7.7,7.7c-4.2,0-7.7-3.5-7.7-7.7c0-4.2,3.4-7.7,7.7-7.7
		c4.4,0,8-3.6,8-8s-3.6-8-8-8c-13.1,0-23.7,10.6-23.7,23.7c0,13.1,10.6,23.7,23.7,23.7c13.1,0,23.7-10.6,23.7-23.7
		C183.8,299.4,180.2,295.8,175.8,295.8z"/>
	<path class="st0" d="M384.1,295.8c-4.4,0-8,3.6-8,8c0,4.2-3.4,7.7-7.7,7.7c-4.2,0-7.7-3.5-7.7-7.7c0-4.2,3.5-7.7,7.7-7.7
		c4.4,0,8-3.6,8-8s-3.6-8-8-8c-13.1,0-23.7,10.6-23.7,23.7c0,13.1,10.6,23.7,23.7,23.7c13.1,0,23.7-10.6,23.7-23.7
		C392.1,299.4,388.5,295.8,384.1,295.8z"/>
	<path class="st0" d="M455.7,230.4l-19-88.8c-3.4-16.8-19.4-29.9-36.5-29.9h-55.6c-4.4,0-8,3.6-8,8v80.4h-8.7v-66.6
		c0.4-1.7,0.6-3.5,0.6-5.3c0-13.3-10.8-24.1-24.1-24.1H40c-13.3,0-24.1,10.8-24.1,24.1c0,10.5,6.7,19.4,16.1,22.7v32.8
		c0,4.4,3.6,8,8,8c4.5,0,8.1,3.6,8.1,8.1s-3.6,8.1-8.1,8.1s-8.1-3.6-8.1-8.1c0-4.4-3.6-8-8-8s-8,3.6-8,8c0,13.3,10.8,24.1,24.1,24.1
		s24.1-10.8,24.1-24.1c0-10.5-6.7-19.4-16.1-22.7v-24.8h232.3v47.8h-0.1c-13.2,0-24,10.8-24,24v7.5H8c-4.4,0-8,3.6-8,8v56.2
		c0,8.8,7.2,16,16,16h16.7c3.8,22.7,23.6,40,47.3,40c16.7,0,31.4-8.6,40-21.5c8.6,13,23.3,21.5,40,21.5c23.7,0,43.5-17.3,47.3-40
		h113.6c3.8,22.7,23.6,40,47.3,40c23.7,0,43.5-17.3,47.3-40h32.2c4.4,0,8-3.6,8-8v-71.7C455.9,231.5,455.8,230.9,455.7,230.4z
		 M438,224.1h-52.3c-0.5-0.1-1.1-0.2-1.6-0.2c-4.5,0-8.2-3.7-8.2-8.2v-56.3h48.2L438,224.1z M296.3,128.2c0-4.5,3.6-8.1,8.1-8.1
		c3.7,0,6.9,2.5,7.8,6c-0.2,0.7-0.3,1.4-0.3,2.1v3c-1.2,3-4.1,5.1-7.5,5.1C300,136.3,296.3,132.6,296.3,128.2z M40,120.1
		c4.5,0,8.1,3.6,8.1,8.1s-3.6,8.1-8.1,8.1s-8.1-3.6-8.1-8.1S35.6,120.1,40,120.1z M62.7,136.3c0.9-2.5,1.4-5.2,1.4-8.1
		c0-2.8-0.5-5.6-1.4-8.1h219c-0.9,2.5-1.4,5.2-1.4,8.1v8.1H62.7z M296.3,152.3h8.1c2.6,0,5.1-0.4,7.5-1.2v49h-15.6V152.3z
		 M272.2,224.1c0-4.4,3.6-8,8-8h56.4v51.8c-8,7.1-13.7,16.9-15.5,27.9h-48.8V224.1z M16,247.6h240.2v48.2h-48.8
		c-3.8-22.7-23.6-40-47.3-40c-16.7,0-31.4,8.6-40,21.5c-8.6-13-23.3-21.5-40-21.5c-23.8,0-43.5,17.3-47.3,40H16V247.6z M80,335.8
		c-17.7,0-32-14.4-32-32c0-17.7,14.4-32,32-32c17.7,0,32,14.4,32,32C112.1,321.4,97.7,335.8,80,335.8z M160.1,335.8
		c-17.7,0-32-14.4-32-32c0-17.7,14.4-32,32-32c17.7,0,32,14.4,32,32C192.1,321.4,177.7,335.8,160.1,335.8z M368.4,335.8
		c-17.7,0-32-14.4-32-32c0-17.7,14.4-32,32-32c17.7,0,32,14.4,32,32C400.4,321.4,386.1,335.8,368.4,335.8z M415.7,295.8
		c-3.8-22.7-23.6-40-47.3-40c-5.5,0-10.8,1-15.8,2.7V127.7h47.6c9,0,18.1,7.1,20.5,15.8h-52.8c-4.4,0-8,3.6-8,8v64.3
		c0,12.7,9.8,23.1,22.2,24.1c0.6,0.2,1.3,0.2,2,0.2h55.8v7.9h-7.8c-4.4,0-8,3.6-8,8s3.6,8,8,8h7.8v31.8L415.7,295.8L415.7,295.8z"/>
	<path class="st0" d="M288.3,247.6h31.6c4.4,0,8-3.6,8-8s-3.6-8-8-8h-31.6c-4.4,0-8,3.6-8,8S283.9,247.6,288.3,247.6z"/>
</g>
</svg>
